<svg version="1" xmlns="http://www.w3.org/2000/svg" width="8333.333" height="8333.333" viewBox="0 0 6250.000000 6250.000000"><path d="M3071.8 7.5c-.2.2-10 .7-21.8 1-25.3.8-33.2 1.1-50 1.9-24.7 1.3-44 2.4-51.5 3.1-2.7.2-9.5.7-15 1-5.5.4-11.6.8-13.5 1-1.9.2-7.3.6-12 1-4.7.3-10.1.8-12 1-1.9.2-7.1.7-11.5 1.1-4.4.4-9.1.8-10.5.9-1.4.2-5.9.6-10 .9-4.1.4-8.6.9-10 1.1-1.4.2-5.4.6-9 1-9.1.8-16.1 1.6-19 2-1.4.2-5 .7-8 1-6.1.6-11.7 1.3-17 2-1.9.3-5.5.7-8 1-4.7.5-18.6 2.3-23 3-1.4.2-5 .6-8 1-3 .3-7.7 1-10.5 1.5-2.7.5-6.8 1.1-9 1.4-2.2.3-8.9 1.2-15 2.1-6 .9-12.1 1.8-13.5 2-4.2.6-9.7 1.5-28.5 4.6-21.7 3.6-20 3.3-30.5 5.3-4.7.8-9.6 1.7-11 2-6.5 1.1-21.3 3.9-28 5.2-4.1.9-8.6 1.8-10 2-1.4.2-3.6.7-5 1-1.4.3-3.5.8-4.7 1-5.5 1-7.1 1.3-11.3 2.3-2.5.5-5.6 1.2-7 1.5-6.1 1.1-18.8 3.8-22 4.6-3.4.9-5.5 1.3-11.5 2.5-1.6.3-6.6 1.4-11 2.5-12.4 2.9-34.8 8.1-36.5 8.5-.9.2-8.1 2-16 4l-16 4c-1.6.3-14 3.6-35 9.2-68.4 18.2-154.3 45.6-225 71.8-1.9.7-8 3-13.5 5s-10.9 4.1-12 4.5c-1.1.5-6.3 2.6-11.5 4.6-11.8 4.5-38.8 15.2-41.5 16.4-1.1.5-11.7 4.9-23.5 9.9-24 10-35.5 14.9-44.8 19.2-3.4 1.6-6.4 2.9-6.6 2.9-.5 0-6 2.5-35.1 16-36.3 16.9-76.9 36.8-103.5 50.8-5.8 3-14.8 7.7-20 10.5-5.2 2.7-12.4 6.6-16 8.5-6 3.2-8.6 4.7-19.5 10.7-2.2 1.2-7.8 4.3-12.5 6.9-4.7 2.6-9.2 5.1-10 5.6-2.5 1.5-14.1 8.1-20 11.3-11.3 6.3-70.5 41.9-86.5 52.1-4.9 3.2-11.7 7.4-14.9 9.4-7.7 4.8-80.7 53.6-91.1 60.9-35 24.5-101.1 73.7-121.1 90-2.2 1.7-8.8 7.1-14.9 11.9-17.5 13.8-67.8 55.5-69.5 57.4-.3.3-3.2 2.8-6.5 5.5-3.3 2.8-6.4 5.5-7 6.1-.5.6-3.9 3.5-7.4 6.5-3.6 3-7.6 6.5-9.1 7.9-1.5 1.4-5.5 5-8.9 8-7.3 6.3-7.4 6.4-21.2 19-9.9 9-13 11.9-32.8 30.5-14.5 13.5-79.9 79.2-93.1 93.4-6.9 7.4-13.8 14.9-15.4 16.5-1.5 1.7-6 6.7-10 11-3.9 4.4-8.7 9.6-10.6 11.7-1.9 2-4.6 5-6 6.6-1.4 1.6-5.4 6.2-9 10.3-3.6 4.1-6.7 7.7-7 8-.3.3-3.2 3.6-6.5 7.5-3.3 3.8-6.2 7.2-6.5 7.5-2.6 2.6-36.6 43.6-46.9 56.5-5.6 7.1-11 13.9-12 15-.9 1.1-5.4 6.9-10.1 13-4.6 6-8.7 11.2-9 11.5-.6.6-26.9 35.6-29 38.7-.8 1.2-4.4 6.1-7.9 11-15 20.5-39.9 56.2-51.4 73.8-2.5 3.8-5.6 8.3-6.7 10-4.2 6-19.8 30.4-33.5 52.3-8.2 13.2-34.3 56.9-41.6 69.7-22.5 39.6-37.6 67.9-57.8 108-16.7 33.1-36.8 75.1-38.6 80.5-.1.3-1.6 3.6-3.4 7.5-8 17.2-36.1 82.7-36.1 84.2 0 .3-.7 1.9-1.5 3.6-5.4 11.7-41.7 109.3-44 118.7-.1.3-.5 1.2-.8 2-1.5 3.7-17.4 52.7-22.7 70-1.7 5.8-4 13.2-5.1 16.6-1.1 3.3-2.2 6.9-2.4 8-.2 1-1.8 6.6-3.5 12.4-9.4 32.3-24.4 88.5-27.6 102.8-.2 1.3-1.6 6.9-3 12.5-1.3 5.6-4.3 18.3-6.5 28.2-2.2 9.9-4.2 18.7-4.4 19.5-.9 4.2-10.5 49.9-10.9 52.5-.3 1.6-.8 4.1-1.1 5.5-.3 1.4-1.2 6.3-2.1 11-.9 4.7-1.8 9.4-2 10.5-.4 2-1.8 10.1-2.9 16-.2 1.6-.7 4.1-1 5.5-.2 1.3-.7 4-1 6-.7 4.7-1.3 7.8-1.9 9.8-.3.9-.8 3.9-1.1 6.6-.3 2.7-1.2 9-2.1 14-.9 5-1.8 10-1.9 11.1-.2 1.1-.6 3.8-.9 6-.7 4.6-2.2 14.2-3.1 20-.3 2.2-1 6.7-1.5 10s-1.2 8.2-1.5 11c-.3 2.7-.8 6.1-1 7.5-.6 3.5-1.2 7.6-2 14-.4 3-.9 6.2-1 7.1-.2.8-.6 4-.9 7-.4 3-.8 7-1.1 8.9-.2 1.9-.7 5.7-1 8.5-.4 2.7-.8 6.1-1 7.5-.2 1.4-.6 5.4-1 9-.4 3.6-.8 7.6-1 9-.3 2.3-.7 5.5-2 18-.5 4.5-1.1 10.8-2.1 21-.6 7.4-1.4 14.8-2 19-.2 1.9-.6 6.5-.9 10.2-.2 3.7-.6 9.1-.9 12-.6 5.3-1.5 17.3-2.1 25.8-.2 2.5-.6 8.8-.9 14.2-.4 5.3-.8 11.3-1 13.5-.3 2.1-.7 9.6-1.1 16.8-.4 7.1-.9 14.8-1 17-.3 3.6-1 18.5-2 42-2.7 59-2.7 187.6 0 228.5.2 3.6.7 11.7 1 18 .3 6.3.8 13.5 1 16 .2 2.5.7 8.8 1 14 .6 9.5.7 11.7 2 26 .4 4.1.8 9.1 1 11 .8 9.3 1.6 17.8 2 21 .2 1.9.7 6 1 9 .3 3 .8 7.1 1 9 .3 1.9.9 7.5 1.5 12.5.6 4.9 1.3 10.6 1.5 12.5.2 1.9 1.2 9.1 2 16 .9 6.9 1.9 14.3 2.1 16.5.2 2.2.9 6.2 1.4 9 .5 2.7 1.2 7.2 1.5 10 .3 2.7.8 5.7 1 6.5.2.8.7 3.5 1 6 .2 2.5.7 5.4.9 6.5.2 1.1.7 4 1.1 6.5.4 2.5.9 5.4 1.1 6.5.3 1.1.6 3.6.9 5.5.3 1.9 1.2 7.3 2 12 .9 4.7 1.7 9.4 1.9 10.5.3 2.1 1.9 10.6 2.1 11.5.1.3.5 2.7.9 5.5.4 2.7 1.1 6.3 1.6 8 .5 1.6 1.1 4.6 1.4 6.5.4 3.1 3 16 8.2 40 .8 4.1 1.7 8.2 1.9 9 .2.8 1.7 7.8 3.5 15.5 1.7 7.7 3.3 14.7 3.5 15.5.2.8 2 8.2 4 16.5 2 8.2 3.8 15.7 4 16.5.2.8 1.2 4.9 2.3 9 1.1 4.1 3.5 12.9 5.2 19.5 5.1 19.5 18.9 67.6 24.5 85.5 6.3 20.3 18.7 58.7 19.5 60.5.5 1.1 2 5.4 3.3 9.5 6 17.9 16.4 47.1 26.8 74.7 10.7 28.6 32.3 83 38.4 96.8.8 1.6 3.9 8.9 6.9 16.2 3.1 7.3 9 21 13.2 30.5 7.4 16.9 8.8 19.9 14.4 32.3 1.5 3.3 4 8.7 5.5 12 1.5 3.3 4.1 8.9 5.7 12.5 1.7 3.6 4.5 9.6 6.3 13.5 1.8 3.8 4.6 9.9 6.3 13.5 13.4 28.9 53.1 108.3 70.7 141.5 2.3 4.4 6.6 12.5 9.5 18 2.9 5.5 6.7 12.5 8.3 15.5 1.7 3 4.8 8.9 7 13s5.1 9.5 6.5 12c1.3 2.5 4 7.4 6 11 1.9 3.6 7.9 14.4 13.2 24 5.3 9.6 11.2 20.2 13 23.5 1.8 3.3 4.4 7.7 5.7 9.7 1.2 2.1 2.3 3.9 2.3 4.2 0 .2 7.7 13.8 17.2 30.2 9.4 16.5 18.4 32.1 20 34.9 1.6 2.7 3.3 5.7 3.8 6.5.5.8 6.9 11.6 14.1 24 7.3 12.4 16.3 27.6 20 33.9 3.8 6.2 6.9 11.8 6.9 12.2 0 .5.5.9 1 .9.6 0 1 .4 1 .9s6.2 11.2 13.8 23.8c7.6 12.5 16 26.4 18.7 30.8 2.7 4.4 10.2 16.7 16.7 27.3 6.6 10.7 12.7 20.6 13.6 22.2 2.5 4.2 9.3 15.1 42 67.5 16.2 25.8 30.2 48.2 31.1 49.7.9 1.5 6.5 10.5 12.5 20 6.1 9.5 22.2 35.1 35.9 56.8 13.7 21.7 28.7 45.3 33.3 52.5 7.4 11.6 12.7 19.9 18.9 30 3.4 5.5 14.4 22.6 26.2 40.8 15.9 24.3 15.7 24.1 16.6 25.2.8 1.1 22.1 33 26 39 1.4 2.2 3.4 5.1 4.5 6.5 1 1.4 5.2 7.4 9.3 13.5 4 6 7.7 11.4 8.2 12 .4.5 5.2 7.4 10.7 15.2 15.3 22.1 16.5 23.8 17 24.3.3.3 2.5 3.4 5 7 2.4 3.6 4.8 6.9 5.3 7.5.4.5 9.9 13.6 21 29 11.2 15.4 25.7 35.2 32.2 44 6.6 8.8 12.7 17 13.5 18.2.8 1.2 6.1 8.1 11.7 15.5 5.6 7.3 14.1 18.5 18.9 24.8 13.1 17.2 53.3 68.9 54.4 70 .3.3 2.7 3.2 5.2 6.5 11.2 14.3 24.7 31.1 26.3 32.9.6.6 1.7 2 2.5 3.2.8 1.1 3.1 4.1 5.2 6.5 2 2.4 6.1 7.5 9.2 11.4 24.9 31 95.4 115.7 110.2 132.5 1.3 1.4 12.3 14.2 24.5 28.5 12.3 14.3 32 37 43.8 50.5 11.9 13.5 22.7 25.8 24.2 27.5 8.3 9.5 21 23.7 25.3 28.5 7.9 8.6 19.9 22.1 23.7 26.5 1.9 2.2 4.3 4.9 5.4 6.1 1.1 1.1 5.4 5.8 9.5 10.4 4.1 4.6 8.4 9.3 9.5 10.5 1.1 1.1 6.3 6.8 11.5 12.5 5.2 5.8 11.3 12.5 13.7 15 2.3 2.5 5 5.5 6 6.6 1 1.2 6.5 7.2 12.3 13.4 5.8 6.2 11.3 12.2 12.3 13.4 1 1.1 4.4 4.8 7.5 8.1 3.1 3.4 10.9 11.7 17.2 18.5 6.3 6.8 14.7 15.8 18.6 20 4 4.1 8.6 9.1 10.4 11 1.8 1.9 9.4 10 16.9 17.9 7.5 8 15 15.9 16.6 17.6 1.7 1.8 10.2 10.7 19 20 8.8 9.2 18.4 19.3 21.3 22.4 60.5 63.8 220.1 223.9 298.8 299.8 4.5 4.3 17.6 16.9 29 27.9 22.4 21.6 22.9 22.1 47 45.1 24.9 23.7 24.1 23 58 55 5.3 5 25.3 23.7 48.5 45.3 6.8 6.3 13.7 12.8 15.4 14.3 1.6 1.6 7.5 7 13 12 5.4 5.1 13.3 12.4 17.5 16.3 4.1 3.9 9.5 8.9 11.9 11 2.4 2.2 6.5 5.9 9.1 8.4 5.8 5.5 22.5 20.8 25.4 23.3 1.2 1 4.1 3.7 6.6 6 4.2 3.9 16.4 15 37.4 34.1 4.9 4.5 10.1 9.2 11.5 10.5 1.4 1.2 6.2 5.5 10.5 9.5 4.4 3.9 9.1 8.2 10.6 9.6 1.5 1.4 4.3 3.9 6.1 5.5 2.8 2.5 21.4 19.1 36.9 33.1 1.9 1.7 8 7.1 13.5 12s10.5 9.3 11.1 9.9c1.5 1.4 15.2 13.6 17.8 15.8 4.9 4.3 14 12.3 15 13.2.6.6 6.7 6 13.6 12 6.9 6 13 11.4 13.6 12 .6.5 4.2 3.7 8 7 3.7 3.3 9.1 8 11.9 10.5 2.8 2.5 6.7 5.8 8.6 7.5 5.2 4.3 16.9 14.7 19.3 17 1.2 1.1 3.4 3 5 4.2 1.5 1.3 5 4.2 7.6 6.5 2.6 2.4 6 5.4 7.6 6.7 1.6 1.4 7.6 6.5 13.4 11.5 5.8 5 11.8 10.2 13.4 11.6 1.7 1.4 4.8 4.1 7 6.1 4.2 3.7 27.7 23.7 55.6 47.4 8.4 7.1 15.8 13.5 16.4 14 .6.6 10.6 8.9 22.1 18.5 11.6 9.6 21.2 17.7 21.5 18.1.3.3 5.7 4.8 12 9.9 6.3 5.2 11.7 9.7 12 10 .3.3 2.1 1.8 4.1 3.3 3 2.3 3.9 2.5 5.1 1.5.7-.7 4.2-3.5 7.8-6.3 3.6-2.7 7.4-5.7 8.5-6.7 1.1-.9 8.1-6.5 15.5-12.4 18.5-14.7 43.4-34.7 44-35.4.3-.3 2.5-2.1 5-4s4.7-3.7 5-4c.3-.3 3.2-2.7 6.5-5.4 3.3-2.6 8-6.5 10.5-8.6 2.5-2.1 12.2-10.1 21.6-17.8 9.4-7.7 18.2-14.9 19.5-16 1.3-1.1 4.5-3.7 7-5.8 2.5-2.2 6.5-5.5 8.9-7.4 2.4-1.9 4.8-4 5.4-4.5.6-.6 3.6-3 6.6-5.5 3-2.5 6-4.9 6.6-5.5.6-.5 3.2-2.8 5.9-5 6.1-5 38.1-31.9 41.5-34.8 1.4-1.2 5.2-4.5 8.5-7.2 3.3-2.8 6.2-5.2 6.5-5.5.9-.9 8.5-7.5 14-12 2.9-2.5 10.3-8.8 16.5-14 6.1-5.2 13.2-11.3 15.9-13.5 2.6-2.2 6.5-5.6 8.6-7.5 2.1-1.9 4.9-4.4 6.2-5.4 3.9-3.3 23.2-19.9 24.4-21 .6-.6 3.5-3.1 6.4-5.5 2.9-2.5 5.8-5 6.4-5.6.6-.6 6.3-5.5 12.6-11 10.4-8.9 21.2-18.4 29.5-25.7 1.6-1.4 4.1-3.6 5.5-4.8 4.3-3.7 15.2-13.3 21-18.5 3.1-2.8 8.7-7.7 12.4-11 9.4-8.2 9.5-8.3 16.7-14.7 3.5-3.1 7.5-6.6 8.9-7.8 2.6-2.2 9.9-8.8 16-14.4 1.9-1.7 7.3-6.5 11.9-10.6 4.7-4.1 9.2-8.2 10.1-9 4.7-4.3 20.1-18.1 24-21.6 2.5-2.1 7-6.2 10-9s7.7-7.1 10.5-9.5c2.7-2.4 5.9-5.3 7.1-6.4 1.1-1.1 4.1-3.8 6.5-5.9 2.4-2.2 9.1-8.3 14.9-13.6 5.8-5.3 12.5-11.4 14.9-13.6 2.4-2.1 5.8-5.3 7.5-6.9 2.8-2.6 15.2-14 26-23.8 6.5-6 31.7-29.4 47.1-43.7 3.8-3.6 7.4-7 8.1-7.5.6-.6 4.7-4.4 9.1-8.5 4.3-4.1 15.1-14.3 23.8-22.5 8.8-8.3 19.4-18.2 23.5-22.2 4.1-3.9 9.3-8.8 11.5-10.8 2.2-2.1 9-8.5 15.1-14.4 6-5.8 20.6-19.8 32.3-31.1 93.2-89.5 210.8-207 282.7-282.5 3.7-3.9 11.2-11.8 16.8-17.6 10.7-11.2 17.5-18.3 40.2-42.4 16-16.9 17.1-18.1 30.9-33.1 5.5-5.9 11.1-12 12.5-13.4 3-3.2 20.9-22.5 24.2-26.1 1.2-1.4 6.6-7.2 11.8-12.9 5.2-5.7 11.8-12.8 14.5-15.9 2.8-3 5.7-6.2 6.5-7.1.8-.9 5.1-5.6 9.5-10.5s8.7-9.6 9.5-10.5c1.9-2.1 15.9-17.6 18.3-20.4 2.5-2.8 13.9-15.7 15.2-17 1.4-1.5 30.5-34.5 38-43.1 3.3-3.8 6.7-7.6 7.5-8.5 1.4-1.5 17.3-19.8 21.5-24.9 1.1-1.3 2.5-2.9 3-3.5 1.7-1.9 15.6-18 17.9-20.6 1.1-1.4 4.5-5.5 7.5-9 3-3.6 6-7 6.5-7.5.6-.6 5.6-6.4 11.1-13s10.2-12.2 10.5-12.5c.3-.3 2.8-3.2 5.5-6.5 2.8-3.3 5.5-6.5 6-7.1.6-.6 2.4-2.9 4.2-5 1.7-2.2 8.3-10 14.5-17.5 6.2-7.5 12.9-15.5 14.8-17.9 1.9-2.4 5.1-6.2 7-8.5 1.9-2.3 5.1-6.1 7-8.5 1.9-2.3 9.7-12 17.4-21.4 15.9-19.7 14.4-17.8 35.8-44.6 13.9-17.5 47.4-60.3 54.2-69.3 1.1-1.6 3.2-4.3 4.6-6 1.4-1.8 2.9-3.7 3.3-4.2 6.3-8.1 57.6-76.6 64.3-86 4.2-5.9 11.4-15.8 15.9-22 37.1-50.4 95.4-136.2 139.1-204.7 6.5-10.3 12.4-19.6 13-20.7.5-1.1 3.4-5.7 6.3-10.3 2.9-4.6 12.2-19.6 20.7-33.3 8.4-13.8 28.1-45.4 43.6-70.2 15.6-24.9 28.8-46.1 29.3-47.1.6-.9 3-4.9 5.5-8.7 2.4-3.9 4.9-7.8 5.5-8.8 2.4-4.2 32.2-51.7 35.7-56.9 2.1-3.2 3.8-6 3.8-6.3 0-.3.9-1.8 1.9-3.3 1.9-2.6 22.6-35.9 24.6-39.5 1.6-2.8 21.5-34.8 24.7-39.5 1.5-2.4 2.8-4.5 2.8-4.8 0-.3.8-1.8 1.9-3.2 1-1.5 6.3-9.9 11.6-18.7 5.4-8.8 14.8-24.1 20.8-34 9.5-15.6 19-31.1 23-38 .7-1.1 2.6-4.2 4.2-7 4.1-6.8 2.9-4.8 25.6-43 11.1-18.7 22.2-37.4 24.7-41.5 2.5-4.1 5.6-9.5 7-12 1.4-2.5 6.2-10.8 10.7-18.5 4.5-7.7 11.5-19.9 15.5-27 4-7.2 8.1-14.2 9.1-15.7 1.1-1.5 1.9-2.9 1.9-3.1 0-.2 3.5-6.6 7.8-14.3 4.3-7.6 8.1-14.6 8.5-15.4.4-.8 1.5-2.9 2.5-4.5 1-1.7 3.2-5.5 4.9-8.5 11.6-20.9 18.6-33.6 22.3-40.5 2.3-4.4 7.1-13.2 10.5-19.5 9.2-17.1 14.4-26.9 22.5-42.5 4-7.7 9.2-17.6 11.5-22 10.1-18.9 49.4-98.3 57.5-116 1.5-3.3 4.8-10.3 7.3-15.5 8.6-18.2 14.7-31.2 14.7-31.5 0-.2 1.6-3.9 3.6-8.2 2-4.3 6.3-13.9 9.6-21.3s6.6-14.9 7.3-16.5c1.7-3.8 18-42.1 23-54 5.7-13.7 6.1-14.7 8-19.5 2.4-6 4.4-11.1 5.5-13.5 1.6-3.5 10.5-26.4 17.5-45 3.7-9.9 7.1-18.9 7.6-20 1.9-4.3 16.5-45.2 24.1-67.5 11.1-32.8 26.4-81.6 34.8-111 3.4-11.9 15-54.3 15.4-56.5.3-1.1 1.3-5.4 2.4-9.5 3.3-12.6 13.9-57.8 16.6-70.5 1.4-6.7 2.8-12.8 3.1-13.5.3-.8.7-2.9.9-4.5.2-1.7 1.8-9.8 3.5-18.2 3.4-17.1 3.2-15.7 6-31.3 3.4-18.9 6.2-35.2 6.7-39.5.3-2.2.9-6.3 1.4-9 .5-2.8 1.2-7.2 1.5-9.9.3-2.7.8-5.2.9-5.5.2-.3.7-3.7 1.1-7.6.4-3.8.8-7.2 1-7.5.2-.3.6-2.8.9-5.5.3-2.8.8-6.6 1.1-8.5.3-1.9.7-5.8 1-8.5.3-2.8.7-6.1.9-7.5.6-3.1 1.4-9.6 2.2-17.5.3-3.3.7-7.4 1-9 .2-1.7.6-6.4 1-10.5.3-4.1.8-8.4 1-9.5.2-1.1.6-5.3.9-9.5.3-4.1.8-9.5 1-12 1.3-13.1 2.7-33.1 4-57.5 2.8-50.2 2.7-164.2 0-222.5-.2-4.1-.7-14.3-1-22.5-.8-16.4-1-21.1-1.9-36-1.2-19.1-1.7-27-2.1-32-.2-2.8-.6-8.8-1-13.5-.3-4.7-.8-10.5-1-13-.2-2.5-.7-7.9-1-12-.3-4.1-.8-9.8-1.1-12.5-.2-2.8-.6-7.7-.9-11-.5-6.1-1.1-12.3-2-20.5-.2-2.5-.7-7.2-1-10.5-.3-3.3-.8-7.1-1-8.5-.2-1.4-.6-5.7-1-9.5-.3-3.9-.7-8.1-1-9.5-.2-1.4-.7-5.2-1-8.5-.3-3.3-.8-7.4-1-9-.2-1.7-.9-7.3-1.5-12.5s-1.3-10.6-1.5-12c-.2-1.4-.6-4.5-.9-7-.3-2.5-1.3-9.4-2.1-15.3-.9-6-1.8-13-2-15.5-.3-2.6-.7-5.6-1-6.8-.2-1.1-.7-4.3-1-7-.3-2.7-.8-6-1.1-7.4-.4-2.2-2.2-14.2-3.9-26-.3-1.9-.7-4.2-1-5-.4-1.6-.9-4.9-2.1-13.5-.3-2.8-.8-5.3-1-5.6-.1-.3-.6-2.8-1-5.5-.6-4.8-.9-6.5-1.9-11.4-.2-1.4-.6-3.6-.9-5-1-5.8-4.8-27-6.1-33.5-.8-3.9-1.6-8.4-1.9-10-.2-1.7-2.1-10.9-4-20.5-2-9.6-3.9-18.8-4.2-20.4-.2-1.6-.6-3.2-.8-3.5-.2-.3-.7-2.2-1-4.3-.3-2-2.6-12.8-5.1-24-4.4-19.7-6.1-27-10.4-44.8-1.2-4.7-2.3-9.4-2.6-10.5-.2-1.1-1.1-4.5-1.9-7.7-.8-3.1-1.7-6.7-2-8-.5-2.6-7.5-29.4-10.7-40.8-1.1-4.1-2.9-10.7-3.9-14.5-1-3.9-3.5-12.6-5.5-19.5s-5.2-17.7-7-24c-1.8-6.3-4.6-15.3-6-20-1.5-4.7-2.8-9-2.9-9.5-.1-.6-1.4-4.6-2.8-9-1.5-4.4-5.8-17.7-9.7-29.5-8.1-24.9-17.3-51.4-26.1-75.5-3.5-9.4-6.8-18.6-7.6-20.5-5.5-15.3-26.1-67-33.3-84-7.6-17.7-11.5-26.9-13.1-30.5-10-22.5-14.6-32.9-17-38-1.6-3.3-4.9-10.5-7.5-16-2.6-5.5-6.1-12.9-7.7-16.5-4.2-9.1-30.3-61.4-36.7-73.5-3-5.5-7.8-14.7-10.9-20.5-5-9.4-8.4-15.7-18.5-34-15.8-28.6-39.5-68.8-57.8-97.9-4.6-7.4-9.3-15-10.4-16.8-1.1-1.8-7.5-11.8-14.2-22.1-14.9-22.9-34.7-52-52.5-77.1-2.6-3.6-5.7-8.1-7-9.9-2-2.8-9.1-12.4-11.6-15.7-.4-.6-3.9-5.3-7.7-10.5-3.9-5.2-7.5-10.2-8.2-11-.7-.8-4.9-6.5-9.4-12.5-15.4-20.5-64.7-82.1-71.4-89.1-.5-.6-2.8-3.3-5-6-3.7-4.5-23.6-27.5-26-30-.5-.6-3.7-4.2-7-8-5.4-6.1-8.1-9.2-16.5-18.4-1.4-1.5-6.8-7.4-12-13-5.2-5.7-10.3-11.2-11.3-12.4-11.6-13.5-78.5-80.5-105.8-106-4.1-3.8-9.9-9.2-12.9-12.1-3-2.8-8.4-7.8-12-11-3.6-3.2-10.3-9.3-15-13.6-4.7-4.2-14.3-12.8-21.5-19-7.1-6.2-13.2-11.5-13.5-11.8-.9-1.2-53.8-45.2-63-52.5-.8-.6-7.1-5.6-14-11.1s-12.9-10.3-13.5-10.7c-.5-.4-2.6-2-4.5-3.6-1.9-1.5-6.4-5-10-7.8-3.6-2.7-7.2-5.4-8-6.1-5.3-4.2-14.9-11.5-20.7-15.8-3.7-2.8-7-5.2-7.3-5.6-.9-.9-44.1-32.2-58-41.9-7.4-5.2-13.7-9.7-14-10-.3-.3-1.2-1-2.2-1.5-.9-.6-13.2-8.9-27.5-18.5-21.8-14.8-39.3-26.3-49.9-33-1.3-.8-11.8-7.5-23.4-14.8-11.6-7.2-21.5-13.2-22-13.2-.6 0-1-.5-1-1 0-.6-.4-1-.9-1-.6 0-5.3-2.7-10.6-6s-9.9-6-10.2-6c-.4 0-1.4-.6-2.2-1.4-.9-.8-3.8-2.6-6.6-4.1-2.7-1.4-8.2-4.6-12.2-7-4-2.4-9.8-5.8-13-7.5-3.2-1.8-6.2-3.5-6.8-4-.5-.4-7.3-4.3-15-8.5-7.7-4.3-15.6-8.7-17.5-9.8-1.9-1.1-5.7-3.2-8.5-4.7-2.7-1.5-8.1-4.4-12-6.5-6.7-3.6-9.7-5.2-30-16-11.6-6.2-71-35.9-84-42-8.6-4.1-40.9-19-53-24.5-9.7-4.4-34.6-15.2-35.5-15.4-.3-.1-.9-.4-1.5-.8-4.9-3-79.8-33-113-45.3-9.9-3.6-18.9-7-20-7.5-7.4-3.4-105.3-36.3-117.5-39.5-.3-.1-1.2-.4-2-.7-.8-.3-3.5-1.1-6-1.8s-5.6-1.6-7-2.1c-4.4-1.6-35.5-10.7-42-12.3-.8-.2-8.7-2.4-17.5-4.9-17.3-4.9-35.1-9.7-37.5-10.2l-24-6c-12.4-3.2-23.2-5.8-24-6-.8-.2-3.3-.8-5.5-1.3-2.2-.6-5.1-1.3-6.5-1.6-1.4-.2-7.4-1.6-13.5-3-9.9-2.3-40.9-9.2-46-10.2-1.1-.2-2.9-.6-4-.8-5.5-1.2-28.3-5.8-30.5-6.2-1.4-.3-3.4-.7-4.5-.9-1.1-.2-10.5-2-21-3.9-10.4-2-20-3.8-21.1-4-1.2-.2-3.9-.7-6-1.1-8.4-1.3-40.2-6.6-45.4-7.5-3-.5-7.7-1.2-10.5-1.5-2.7-.4-5.7-.8-6.5-1-.8-.2-3.5-.7-6-1-2.5-.3-7.2-1-10.5-1.5s-8.2-1.2-11-1.5c-2.7-.3-6.1-.8-7.5-1-4.9-.9-8.6-1.4-13.5-2-2.7-.3-6.3-.8-8-1-1.6-.3-5.1-.7-7.7-1-8.7-.9-14.3-1.6-16.8-2-1.4-.3-5.4-.7-9-1-3.6-.3-7.8-.8-9.5-1.2-1.6-.3-4.7-.7-7-.8-2.2-.2-6-.6-8.5-.9-8.5-1-20.7-2.2-31.5-3.1-3.8-.3-8.3-.8-10-1-1.6-.2-6.6-.6-11-1s-9.9-.8-12.2-1c-5.5-.5-16.9-1.4-25.8-2-6.7-.4-13.8-.9-29-2-3.8-.3-11.3-.8-16.5-1-5.2-.3-13.3-.7-18-1-4.7-.3-14.6-.7-22-1-7.4-.3-20-.8-28-1.2-15.4-.6-159.6-1.3-160.2-.8zm-574.3 1211.9c36.9 3.1 62.5 6.2 94.6 11.6 161 27 308.6 93.4 437.9 197.1 29.3 23.5 52.7 44.5 81.2 72.9l25.7 25.6 14.8-14.9c148.2-149 339.2-247.2 546.6-280.7 59.7-9.6 99.9-13 165.9-13.7 75.4-.9 125.6 2.6 189.8 13.2 97 16 183 43.8 270 87.1 166.8 83.1 303.6 211.4 402.4 377.3 100.2 168.2 156.3 365.2 166.6 585.1 1.4 30 1.4 1263.9 0 1278.1-3.8 38.4-13.2 71.3-30 105.4-13.9 28.2-29.8 50.7-52.5 74.3-44.5 46.3-98.9 73.4-169 83.9-17.3 2.6-72.6 2.6-90 0-34.7-5.2-60.2-13.1-90-27.7-28.4-13.9-50.8-29.7-73.9-52-49.9-48.4-77.3-102.6-88.3-175-1.6-10.8-1.8-48.7-2.4-640-.4-345.7-1-631-1.3-634-.4-3-1.3-13.6-2.2-23.5-7.2-85.4-29.4-166.5-63.1-230.5-48.1-91.3-118.3-161-195.8-194.6-52.7-22.8-112.2-32.6-179.1-29.5-27.7 1.3-46.7 3.1-68.4 6.7-91.1 14.7-165.7 52.1-227.2 113.7-46.9 47.1-79.9 100.8-101.3 165.2-13.4 40.2-21.3 80.2-26.7 135.5-.9 9.6-1.3 165.8-1.8 668-.7 710.8-.3 658-5.5 684.4-9.6 48.2-29.5 91.2-59.6 128.6-11 13.8-34 36.8-45.9 46-40.8 31.5-84.2 49.7-138.5 58.2-18.8 2.9-64.3 3.7-84.5 1.4-68.4-7.8-124.8-34.3-172.9-81.1-49.7-48.4-76.9-102.1-87.8-173.5-1.6-10.8-1.8-47.7-2.3-638.5-.5-459.7-1-630.5-1.8-640-7-78.9-15.7-124.1-34.7-179.3-42-122.3-127.3-222.7-225.5-265.5-35-15.2-73-24.7-116-28.8-16.2-1.6-65.2-1.6-85 0-102.6 8.1-182.6 37.9-253.5 94.6-16.1 12.8-47.2 43.1-59.7 58-52.6 63.1-84.1 135.9-96.7 223.5-5.9 41.1-5.5-14.7-6.1 705.5-.5 616.4-.7 658.7-2.3 669.5-5.9 39.1-13.7 64.9-29.1 96.5-27.1 55.2-72.2 101.3-125.6 128.5-34.7 17.6-69.1 27.3-110.2 31.1-16.7 1.5-62.6.6-76.5-1.5-62.5-9.5-112.8-33.2-157.8-74.3-53.6-49.1-85.7-112.5-94-185.8-1.4-12.7-1.5-109.3-1.3-1033.5l.3-1019.5 2.3-14c7.4-45.5 21.5-83.2 44-117.5 42.5-65 108.4-109.6 185.2-125.4 23.5-4.8 36.4-6 66-6 28-.1 38 .7 60 4.5 38.8 6.7 76.1 21 108.2 41.5 22.6 14.4 51.4 40.4 67.3 60.7l6.8 8.7 3.6-2.1c31.1-18.7 74.9-41.7 106.6-55.9 110.1-49.5 223.5-77.1 349.5-85 22.4-1.4 118.6-.4 140.5 1.4z"/></svg>