<svg version="1.1" id="Layer_1" xmlns="http://www.w3.org/2000/svg" xmlns:xlink="http://www.w3.org/1999/xlink" x="0px" y="0px"
	width="205" height="40" viewBox="0 0 205 40" style="enable-background:new 0 0 205 40;" xml:space="preserve">
<style type="text/css">
	.st3{fill:#ffffff;stroke:#ffffff;stroke-width:0.5;stroke-miterlimit:10;}
</style>
<g>
	<g>
		<g>
			<path class="st3" d="M55.9,16c-0.6,0-1,0.2-1.5,0.5c-0.4,0.4-0.6,0.8-0.6,1.3s0.2,0.9,0.5,1.1s1,0.6,1.6,0.6c0.9,0,2.2,0,3.7,0
				c1.1,0,2.1,0.7,2.6,1.1c0.8,0.6,1.3,1.5,1.3,2.7c0,1-0.4,1.9-1.2,2.6S60.6,27,59.5,27h-3.7c-1.1,0-2-0.4-2.7-1.1
				c-0.8-0.7-1.2-1.6-1.2-2.6h1.9c0,0.5,0.2,0.9,0.6,1.3c0.4,0.3,0.8,0.5,1.4,0.5h3.7c0.6,0,1-0.2,1.5-0.5c0.4-0.4,0.6-0.8,0.6-1.3
				s-0.2-0.9-0.5-1.2c-0.3-0.2-1-0.6-1.5-0.6c0,0-3.3,0-3.6,0c-1.3,0-2.2-0.7-2.7-1C52.5,19.9,52,19,52,17.8c0-1,0.4-1.9,1.2-2.6
				c0.8-0.7,1.7-1.1,2.8-1.1c0,0,3.1,0,3.2,0c1,0,1.9,0.4,2.7,1.1c0.8,0.7,1.2,1.6,1.2,2.6H61c0-0.5-0.2-0.9-0.6-1.3
				C60,16.2,59.6,16,59.1,16C59,16,55.9,16,55.9,16z"/>
		</g>
		<g>
			<path class="st3" d="M71.9,13.9c1.7,0,3.2,0.6,4.5,1.9c1.2,1.3,1.9,2.8,1.9,4.6v1H67.6c0.2,1,0.7,1.9,1.5,2.6s1.8,1,2.8,1
				c0.8,0,1.6-0.2,2.3-0.7c0.7-0.4,1.2-1,1.6-1.8l1.7,0.9c-0.6,1.1-1.3,1.9-2.4,2.6c-1,0.6-2.1,0.9-3.3,0.9c-1.8,0-3.3-0.6-4.5-1.9
				s-1.9-2.8-1.9-4.6c0-1.8,0.6-3.3,1.9-4.6C68.7,14.6,70.2,13.9,71.9,13.9z M76.3,19.4c-0.2-1-0.7-1.9-1.5-2.6s-1.8-1-2.8-1
				c-1.1,0-2,0.3-2.8,1s-1.3,1.5-1.5,2.6H76.3z"/>
		</g>
		<g>
			<path class="st3" d="M87.4,15.8c-1.2,0-2.3,0.4-3.2,1.3c-0.9,0.9-1.3,2-1.3,3.2c0,1.3,0.4,2.3,1.3,3.2c0.9,0.9,1.9,1.3,3.2,1.3
				c1.5,0,2.7-0.6,3.6-1.9l1.5,1.1c-1.3,1.8-3,2.7-5.1,2.7c-1.8,0-3.3-0.6-4.5-1.9S81,22,81,20.2c0-1.8,0.6-3.3,1.9-4.6
				c1.2-1.3,2.8-1.9,4.5-1.9c2.2,0,3.9,0.9,5.1,2.7L91,17.7C90.1,16.5,88.9,15.8,87.4,15.8z"/>
		</g>
		<g>
			<path class="st3" d="M97.5,16c1.1-1.3,2.4-1.9,4-1.9h0.1V16h-0.1c-1.1,0-2,0.4-2.8,1.3c-0.8,1-1.2,2.2-1.2,3.4v6.1h-1.9V14.1h1.9V16z"/>
		</g>
		<g>
			<path class="st3" d="M110.2,13.9c1.7,0,3.2,0.6,4.5,1.9c1.2,1.3,1.9,2.8,1.9,4.6v1h-10.7c0.2,1,0.7,1.9,1.5,2.6s1.8,1,2.8,1
				c0.8,0,1.6-0.2,2.3-0.7c0.7-0.4,1.2-1,1.6-1.8l1.7,0.9c-0.6,1.1-1.3,1.9-2.4,2.6c-1,0.6-2.1,0.9-3.3,0.9c-1.8,0-3.3-0.6-4.5-1.9
				s-1.9-2.8-1.9-4.6c0-1.8,0.6-3.3,1.9-4.6C106.9,14.6,108.4,13.9,110.2,13.9z M114.5,19.4c-0.2-1-0.7-1.9-1.5-2.6s-1.8-1-2.8-1
				c-1.1,0-2,0.3-2.8,1s-1.3,1.5-1.5,2.6H114.5z"/>
		</g>
		<g>
			<path class="st3" d="M122.7,14.1h1.8V16h-1.8v10.8h-1.9V15.9H119V14h1.8V9.7h1.9C122.7,9.7,122.7,14.1,122.7,14.1z"/>
		</g>
		<g>
			<path class="st3" d="M139.7,26.7h-1.9V25c-1.2,1.2-2.7,1.8-4.4,1.8c-1.8,0-3.3-0.6-4.5-1.9s-1.9-2.8-1.9-4.6c0-1.8,0.6-3.3,1.9-4.6
				c1.2-1.3,2.8-1.9,4.5-1.9s3.2,0.6,4.4,1.9V14h1.9V26.7z M133.4,25c1.2,0,2.3-0.4,3.1-1.3c0.9-0.9,1.3-2,1.3-3.2l0,0
				c0-1.3-0.4-2.3-1.3-3.2c-0.9-0.9-1.9-1.3-3.1-1.3c-1.2,0-2.3,0.4-3.2,1.3s-1.3,2-1.3,3.2c0,1.3,0.4,2.3,1.3,3.2
				C131.1,24.5,132.1,25,133.4,25z"/>
		</g>
		<g>
			<path class="st3" d="M145.3,16c1.1-1.3,2.4-1.9,4-1.9h0.1V16h-0.1c-1.1,0-2,0.4-2.8,1.3c-0.8,1-1.2,2.2-1.2,3.4v6.1h-1.9V14.1h1.9V16z"/>
		</g>
		<g>
			<path class="st3" d="M153.8,10c0.2,0.2,0.3,0.5,0.3,0.8s-0.1,0.6-0.3,0.8s-0.5,0.3-0.8,0.3s-0.6-0.1-0.8-0.3s-0.3-0.5-0.3-0.8
				s0.1-0.6,0.3-0.8s0.5-0.3,0.8-0.3S153.6,9.8,153.8,10z M152.1,26.7h1.9V14.1h-1.9V26.7z"/>
		</g>
		<g>
			<path class="st3" d="M168.9,26.7H167v-1.5c-1.1,1.1-2.3,1.6-3.7,1.6c-1.5,0-2.8-0.6-3.9-1.9c-1.1-1.2-1.6-2.7-1.6-4.5V14h1.9v6.5
				c0,1.2,0.4,2.3,1.1,3.2c0.7,0.9,1.6,1.3,2.6,1.3s1.9-0.4,2.6-1.3c0.7-0.9,1.1-1.9,1.1-3.2V14h1.9v12.7H168.9z"/>
		</g>
		<g>
			<path class="st3" d="M187.3,13.9c1.5,0,2.8,0.6,3.9,1.9c1.1,1.2,1.6,2.7,1.6,4.5v6.5H191v-6.5c0-1.2-0.4-2.3-1.1-3.2
				c-0.7-0.9-1.6-1.3-2.6-1.3s-1.9,0.4-2.6,1.3c-0.7,0.9-1.1,1.9-1.1,3.2v6.5h-1.9v-6.5c0-1.2-0.4-2.3-1.1-3.2
				c-0.7-0.9-1.6-1.3-2.6-1.3s-1.9,0.4-2.6,1.3c-0.7,0.9-1.1,1.9-1.1,3.2v6.5h-1.9V14.1h1.9v1.5c1.1-1.1,2.3-1.6,3.7-1.6
				c0.9,0,1.8,0.3,2.7,0.8c0.8,0.5,1.5,1.2,2,2.1c0.5-0.9,1.2-1.6,2-2.1C185.5,14.2,186.4,13.9,187.3,13.9z"/>
		</g>
	</g>
</g>
<g>
	<g>
		<path class="st3" d="M37,1.5c0.8,0,1.4,0.6,1.4,1.4v34.2c0,0.7-0.7,1.3-1.4,1.3H2.8c-0.8,0-1.4-0.6-1.4-1.4V2.9c0-0.8,0.6-1.4,1.4-1.4H37
			 M37,0H2.8C1.2,0-0.1,1.3-0.1,2.9V37c0,1.6,1.3,2.9,2.9,2.9H37c1.6,0,2.9-1.3,2.9-2.8V2.9C39.9,1.3,38.6,0,37,0L37,0z"/>
	</g>
</g>
<g>
	<path class="st3" d="M12.9,10.8L12.9,10.8c1.3,0,2.4,1.1,2.4,2.4l0,0c0,1.3-1.1,2.4-2.4,2.4s-2.4-1.1-2.4-2.4
		C10.5,11.9,11.6,10.8,12.9,10.8 M12.9,9.7c-2,0-3.6,1.6-3.6,3.6s1.6,3.6,3.6,3.6s3.6-1.6,3.6-3.6S14.9,9.7,12.9,9.7"/>
	<path class="st3" d="M26.5,10.8L26.5,10.8c1.3,0,2.4,1.1,2.4,2.4l0,0c0,1.3-1.1,2.4-2.4,2.4s-2.4-1.1-2.4-2.4l0,0
		C24,11.9,25.1,10.8,26.5,10.8 M26.5,9.7c-2,0-3.6,1.6-3.6,3.6s1.6,3.6,3.6,3.6s3.6-1.6,3.6-3.6C30,11.3,28.4,9.7,26.5,9.7"/>
	<path class="st3" d="M24,26.7c0-1.3,1.1-2.4,2.4-2.4s2.4,1.1,2.4,2.4l0,0c0,1.3-1.1,2.4-2.4,2.4S24,28,24,26.7L24,26.7 M26.5,23.1
		c-2,0-3.6,1.6-3.6,3.6s1.6,3.6,3.6,3.6s3.6-1.6,3.6-3.6C30,24.7,28.4,23.1,26.5,23.1"/>
	<path class="st3" d="M5.7,20.3c0.1,0.1,0.3,0.2,0.4,0.2s0.3-0.1,0.4-0.2L9,17.9c-0.3-0.3-0.5-0.5-0.8-0.8l-2.5,2.4
		C5.5,19.7,5.5,20,5.7,20.3z"/>
	<path class="st3" d="M21.8,17l-2.1,2.1l-2.1-2c-0.2,0.3-0.5,0.6-0.8,0.8l2.5,2.4c0.1,0.1,0.3,0.2,0.4,0.2s0.3-0.1,0.4-0.2l2.5-2.4
		C22.3,17.6,22,17.3,21.8,17z"/>
	<path class="st3" d="M30.2,17.8l2.1,2.1l-2,2.1c0.3,0.2,0.6,0.5,0.8,0.8l2.4-2.5c0.1-0.1,0.2-0.3,0.2-0.4s-0.1-0.3-0.2-0.4L31.1,17
		C30.8,17.3,30.5,17.6,30.2,17.8z"/>
</g>
</svg>
