<svg xmlns="http://www.w3.org/2000/svg" viewBox="0 0 495.48 159.49"><title>innovateuk</title><path d="M321.11,81.17h-6.39V49h6.39Z" style="fill:#ffffff"/><path d="M348.9,68.7V81.17h-6.12V70.08c0-.78.55-6.58-3.86-6.81-2.17-.14-6,1.06-6,7.09V81.17h-6.07v-23h4.69l.78,2.81h.78a8.83,8.83,0,0,1,7-3C346,57.93,348.9,62.35,348.9,68.7Z" style="fill:#ffffff"/><path d="M376,68.7V81.17h-6.12V70.08c0-.78.55-6.58-3.86-6.81-2.17-.14-6,1.06-6,7.09V81.17h-6.07v-23h4.69l.78,2.81h.78a8.83,8.83,0,0,1,7-3C373.05,57.93,376,62.35,376,68.7Z" style="fill:#ffffff"/><path d="M379.9,69.71c0-7.36,5.71-11.78,11.87-11.78a11.33,11.33,0,0,1,11.64,11.69A11.49,11.49,0,0,1,391.59,81.4,11.34,11.34,0,0,1,379.9,69.71Zm17.49,0c0-3.59-2.12-6.4-5.62-6.4s-5.84,2.81-5.84,6.4,2.35,6.39,5.84,6.39S397.39,73.25,397.39,69.67Z" style="fill:#ffffff"/><path d="M428.53,58.16l-7.45,23h-8.93l-7.45-23h6.12l5.34,16.93h.92l5.33-16.93Z" style="fill:#ffffff"/><path d="M453.05,76.75v4.42h-1.38c-2.67,0-4.55-1-5.33-3-1.38,1.89-3.69,3.18-7.27,3.18-5.2,0-8.51-2.67-8.51-6.81,0-7.18,9.8-7.82,14.21-8-.09-2.67-1.56-3.64-3.91-3.64-3.27,0-3.5,2-3.5,2h-5.75c.42-4.09,3.78-6.95,9.39-6.95s9.34,2.72,9.34,9.39v6.12C450.34,76.11,451.3,76.75,453.05,76.75Zm-8.37-5.24v-.46c-4.19.46-8.33,1-8.33,3.35C436.35,77.9,444.31,77.62,444.68,71.51Z" style="fill:#ffffff"/><path d="M471.55,79.47a8.11,8.11,0,0,1-5.48,1.93c-4.42,0-8.23-3-8.23-7.64V63.09h-4.6V58.58h2.3a2.52,2.52,0,0,0,2.62-2.72v-4.6h5.57v6.9h5.79v4.93h-5.79v10.3a2.8,2.8,0,0,0,2.94,2.76,5.91,5.91,0,0,0,2.67-.78Z" style="fill:#ffffff"/><path d="M495.42,71.41H478.63a5.82,5.82,0,0,0,6,4.79,5.45,5.45,0,0,0,4.46-1.93h5.79a10.94,10.94,0,0,1-10.44,7.13,11.55,11.55,0,0,1-11.64-11.92,11.19,11.19,0,0,1,11.46-11.55C490.18,57.93,496.16,62,495.42,71.41ZM479,66.77h10.35A4.66,4.66,0,0,0,484.47,63,5.69,5.69,0,0,0,479,66.77Z" style="fill:#ffffff"/><path d="M340.21,114.49c0,9.89-5.85,14-12.93,14s-13-4.14-13-14V96.09h6.39V114c0,5.25,2.21,8.42,6.63,8.42s6.53-3.17,6.53-8.42V96.09h6.4Z" style="fill:#ffffff"/><path d="M354.65,114.72H352v13.57h-6.16V96.09H352v12.65h2.58l8.14-12.65h7l-10,15.64,11.41,16.56H364Z" style="fill:#ffffff"/><rect y="17.76" width="141.73" height="141.73" style="fill:#1d1d1e"/><path d="M126.13,33.35H109.61L87.39,57V33.35H55.29V64.76c0,6.72-5,10.63-11.58,10.63S32.12,71.48,32.12,64.76V33.35H15.6V65C15.6,79.17,27,87.3,40,88.62H15.6v55.27H32.12V123.41h7.22l15.27,20.48h71.52V132.73H106.76V99.79h19.37V85.21L102.45,61l23.68-24.18ZM70.87,71.72V97.36c-3.52-6-11.62-8.7-23.63-8.74C58,87.54,67.87,81.75,70.87,71.72ZM32.12,99.79H47.24c6.22,0,8.74,2.41,8.74,6.19s-2.52,6.26-8.74,6.26H32.12Zm58.12,32.94H70.87v7.74L57.23,122.6C67.61,120.69,73,115.32,73,106a18.57,18.57,0,0,0-1-6.19H90.24Zm19.37-44.11H87.39V64.9Z" style="fill:#fff"/><rect x="141.73" y="135.92" width="90.87" height="23.57" style="fill:#706f6f"/><rect x="211.27" y="17.76" width="72.19" height="34.44" style="fill:#706f6f"/><polygon points="211.27 52.2 211.27 17.76 211.27 0 141.73 0 141.73 17.76 141.73 135.92 232.61 135.92 232.61 159.49 283.46 159.49 283.46 52.2 211.27 52.2" style="fill:#b2b2b2"/></svg>